<?xml version="1.0" standalone="no"?>
<!DOCTYPE svg PUBLIC "-//W3C//DTD SVG 20010904//EN"
 "http://www.w3.org/TR/2001/REC-SVG-20010904/DTD/svg10.dtd">
<svg version="1.0" xmlns="http://www.w3.org/2000/svg"
 width="896.000000pt" height="896.000000pt" viewBox="0 0 896.000000 896.000000"
 preserveAspectRatio="xMidYMid meet">
<metadata>
Created by potrace 1.11, written by Peter Selinger 2001-2013
</metadata>
<g transform="translate(0.000000,896.000000) scale(0.100000,-0.100000)"
fill="#000000" stroke="none">
<path d="M4376 8769 c-120 -28 -245 -126 -304 -238 -17 -34 -30 -61 -27 -61 2
0 -2 -18 -10 -40 -20 -57 -12 -200 15 -269 57 -145 190 -260 335 -289 35 -7
149 -7 185 0 50 9 110 31 110 40 0 5 4 7 8 4 10 -6 122 80 122 94 0 6 7 10 15
10 8 0 15 7 15 15 0 8 5 15 10 15 6 0 10 6 10 14 0 8 4 16 8 18 5 2 22 35 37
73 57 143 29 341 -65 449 -43 50 -93 96 -112 102 -10 3 -18 10 -18 15 0 5 -3
8 -7 7 -5 -1 -17 3 -28 9 -66 37 -212 52 -299 32z"/>
<path d="M3859 7766 c-3 -3 -29 -8 -59 -11 -59 -5 -74 -8 -160 -27 -71 -15
-60 -12 -185 -60 -166 -65 -246 -124 -381 -283 -42 -50 -70 -87 -161 -210 -18
-25 -45 -71 -50 -87 -3 -10 -8 -18 -12 -18 -4 0 -13 -16 -21 -35 -8 -19 -17
-35 -22 -35 -4 0 -7 -3 -6 -7 1 -5 -17 -46 -39 -93 -22 -47 -47 -103 -54 -125
-8 -22 -16 -42 -19 -45 -3 -3 -6 -14 -8 -25 -3 -22 -6 -24 66 63 125 152 303
330 398 398 25 17 98 56 114 59 3 1 19 7 35 14 49 19 78 29 110 37 17 4 37 9
45 11 34 10 147 6 183 -6 106 -36 175 -155 193 -336 12 -117 7 -321 -11 -405
-2 -14 -10 -50 -16 -80 -11 -52 -42 -158 -56 -190 -3 -8 -7 -17 -8 -20 -10
-29 -18 -47 -26 -60 -5 -8 -12 -22 -15 -30 -18 -47 -117 -211 -149 -246 -5 -6
-22 -27 -37 -45 -32 -42 -80 -91 -137 -143 l-43 -38 56 6 c146 17 309 104 441
233 79 78 137 143 127 143 -4 0 -2 4 4 8 23 16 93 131 104 172 39 143 143 252
298 310 35 14 157 18 207 8 86 -17 185 -75 240 -142 40 -46 85 -131 85 -156 0
-69 213 -339 330 -420 19 -13 37 -27 40 -31 8 -12 162 -86 213 -103 26 -9 71
-18 100 -21 l52 -6 -70 69 c-38 38 -85 86 -103 108 -17 21 -41 50 -52 63 -11
13 -20 28 -20 32 0 4 -6 14 -13 21 -21 22 -129 210 -126 221 0 2 -7 23 -31 82
-20 50 -50 158 -56 199 -2 21 -7 42 -9 46 -24 38 -24 388 0 500 2 14 7 35 9
46 8 41 55 121 91 156 65 63 166 77 311 44 31 -7 154 -55 189 -73 17 -9 39
-21 50 -27 11 -6 22 -13 25 -16 3 -3 28 -23 55 -45 55 -44 197 -185 262 -261
86 -101 104 -123 126 -154 l18 -25 -7 30 c-14 60 -123 301 -165 365 -9 14 -36
57 -60 95 -24 39 -46 72 -49 75 -3 3 -18 23 -35 45 -16 22 -31 42 -34 45 -4 3
-23 26 -44 53 -50 62 -187 197 -200 197 -6 0 -18 6 -26 13 -9 8 -61 33 -116
57 -55 23 -109 47 -120 51 -11 5 -31 11 -45 13 -14 3 -25 5 -25 6 0 1 -8 3
-19 5 -10 2 -39 8 -65 14 -25 6 -80 13 -121 15 -41 3 -77 5 -80 6 -3 2 -9 2
-14 1 -5 -1 -36 -4 -70 -6 -33 -3 -72 -7 -86 -10 -14 -3 -34 -7 -45 -9 -49 -9
-141 -40 -146 -48 -3 -5 -9 -9 -13 -8 -13 4 -71 -24 -143 -67 -39 -24 -74 -43
-78 -43 -3 0 -21 11 -39 25 -42 32 -217 115 -243 115 -11 0 -23 3 -27 7 -3 4
-14 8 -24 10 -9 1 -45 8 -79 16 -34 7 -90 12 -125 12 -35 0 -66 3 -69 8 -3 4
-7 5 -10 3z"/>
<path d="M2406 6603 c-1 -1 -31 -5 -66 -9 -151 -15 -393 -76 -517 -130 -17 -8
-34 -14 -38 -14 -11 0 -200 -95 -203 -102 -2 -5 -9 -8 -15 -8 -11 0 -157 -145
-202 -200 -61 -75 -132 -201 -174 -308 -73 -185 -83 -428 -26 -624 8 -27 11
-48 7 -48 -22 0 -212 -187 -212 -208 0 -6 -3 -12 -7 -14 -25 -11 -109 -171
-141 -268 -60 -183 -71 -388 -32 -601 13 -71 86 -224 159 -334 25 -38 48 -74
50 -80 9 -21 136 -173 203 -243 75 -79 219 -207 253 -224 18 -10 19 -10 5 6
-8 10 -19 27 -25 37 -5 10 -38 64 -72 119 -77 123 -175 322 -204 413 -11 38
-22 93 -23 123 0 29 -3 54 -6 54 -9 0 1 166 14 226 18 84 88 163 166 189 64
21 156 21 260 0 8 -2 15 -4 15 -5 0 -1 13 -4 29 -6 57 -10 237 -74 316 -114
235 -116 465 -331 594 -552 11 -18 20 -35 21 -38 0 -3 15 -33 32 -67 17 -34
29 -64 25 -67 -3 -3 -1 -6 5 -6 27 0 37 191 16 290 -8 36 -16 74 -18 85 -7 47
-68 183 -118 265 -38 63 -123 174 -181 235 -114 120 -179 280 -178 437 1 58
20 89 109 175 82 80 190 134 328 162 145 31 147 31 164 40 9 5 20 9 24 9 10 0
58 19 135 53 34 16 65 28 69 28 3 0 9 3 12 8 3 5 25 20 49 33 23 13 42 27 42
32 0 4 4 8 10 8 21 0 135 111 179 175 28 39 71 119 71 130 0 3 -7 5 -15 5 -8
0 -15 -4 -15 -8 0 -13 -140 -79 -250 -119 -52 -19 -96 -34 -97 -34 -2 1 -4 1
-5 0 -146 -44 -419 -56 -593 -24 -16 3 -43 8 -60 11 -30 5 -128 32 -155 42 -8
3 -18 4 -22 4 -5 -1 -8 3 -8 10 0 6 -3 8 -6 5 -4 -3 -15 -2 -26 4 -11 6 -28
12 -38 14 -33 6 -143 65 -193 103 -129 99 -150 216 -67 378 24 46 47 84 50 84
4 0 21 20 39 46 51 70 126 135 226 193 87 51 105 60 105 53 0 -4 4 -2 8 4 4 5
23 17 42 26 108 50 151 69 200 88 152 58 154 60 62 57 -46 -1 -84 -3 -86 -4z"/>
<path d="M6415 6595 c17 -7 82 -34 145 -61 138 -56 286 -130 372 -186 75 -48
175 -148 226 -226 20 -32 40 -59 43 -62 10 -9 39 -91 45 -128 3 -20 6 -39 7
-42 3 -21 -18 -104 -30 -115 -8 -8 -11 -15 -8 -15 4 0 -18 -24 -48 -54 -92
-91 -329 -188 -546 -225 -105 -17 -333 -21 -426 -7 -175 27 -348 88 -518 183
-32 18 -33 8 -2 -49 49 -92 142 -195 230 -255 22 -16 42 -31 45 -34 6 -7 125
-68 180 -92 74 -32 203 -70 275 -81 89 -14 213 -63 256 -102 8 -8 19 -14 23
-14 10 0 113 -107 134 -139 9 -13 18 -31 20 -40 11 -51 -3 -167 -28 -232 -10
-26 -15 -50 -12 -53 3 -4 0 -6 -6 -6 -7 0 -11 -3 -10 -7 6 -22 -64 -124 -135
-198 -22 -22 -51 -56 -65 -75 -15 -19 -29 -37 -32 -40 -3 -3 -20 -27 -38 -55
-17 -27 -35 -55 -40 -60 -11 -13 -84 -165 -86 -179 -1 -6 -5 -16 -9 -23 -4 -6
-16 -53 -26 -104 -21 -102 -24 -212 -9 -286 l11 -48 11 30 c17 44 101 201 129
240 120 165 282 319 432 412 64 39 189 97 278 128 276 95 451 95 551 0 39 -38
74 -122 80 -192 2 -32 5 -58 6 -58 6 0 4 -68 -2 -71 -4 -3 -3 -16 2 -29 5 -14
6 -25 2 -25 -4 0 -7 -12 -8 -27 -1 -45 -12 -94 -32 -153 -28 -79 -65 -164 -75
-171 -4 -3 -9 -12 -10 -20 -2 -8 -13 -32 -25 -52 -12 -21 -22 -40 -22 -42 0
-9 -94 -160 -102 -163 -4 -2 -8 -8 -8 -12 0 -5 -13 -29 -30 -53 -16 -25 -30
-49 -30 -53 0 -5 4 -4 8 1 4 6 27 26 52 45 156 120 323 303 441 485 33 50 62
95 66 100 33 43 94 183 107 245 68 319 14 622 -155 872 -42 61 -178 208 -193
208 -4 0 -16 9 -27 19 -16 15 -18 24 -11 38 45 86 58 376 22 502 -5 17 -6 31
-3 31 3 0 1 6 -5 13 -5 6 -13 28 -17 47 -4 19 -11 41 -15 50 -5 8 -26 54 -49
101 -50 107 -140 230 -240 330 -61 60 -97 86 -176 125 -88 45 -303 131 -345
139 -8 2 -33 8 -55 14 -22 5 -55 13 -74 16 -19 3 -37 7 -40 9 -8 5 -110 22
-183 30 -21 2 -42 7 -47 10 -5 4 -12 2 -16 -4 -4 -6 -12 -7 -18 -3 -6 4 -41 8
-77 9 -61 2 -63 1 -35 -11z"/>
<path d="M341 5844 c-80 -21 -147 -62 -213 -128 -32 -33 -56 -61 -54 -64 3 -2
-1 -11 -9 -18 -28 -29 -57 -128 -60 -209 -10 -265 178 -471 439 -480 131 -5
242 40 337 134 56 57 112 151 125 212 37 176 -24 351 -163 469 -30 26 -68 47
-138 76 -54 22 -195 27 -264 8z"/>
<path d="M8458 5854 c-2 -1 -19 -4 -38 -7 -152 -21 -301 -151 -356 -312 -20
-59 -24 -181 -7 -247 16 -62 60 -158 74 -158 5 0 9 -5 9 -10 0 -30 138 -133
213 -159 120 -41 286 -23 379 41 14 10 29 18 33 18 11 0 109 103 123 130 7 14
19 37 27 51 42 76 55 231 27 324 -33 109 -124 222 -222 274 -33 18 -63 32 -67
32 -5 -1 -22 4 -39 9 -28 9 -150 20 -156 14z"/>
<path d="M6285 3414 c-30 -31 -57 -64 -60 -75 -4 -10 -10 -19 -15 -19 -4 0
-10 -8 -14 -17 -3 -10 -10 -25 -15 -33 -25 -38 -71 -162 -85 -230 -27 -133
-28 -143 -28 -276 0 -111 3 -140 21 -189 24 -65 33 -167 19 -229 -12 -56 -48
-146 -59 -146 -5 0 -9 -6 -9 -12 0 -7 -16 -29 -34 -49 -156 -168 -403 -189
-586 -51 -38 29 -82 53 -100 54 -3 0 -14 5 -24 10 -46 25 -171 56 -294 74 -40
6 -193 5 -222 -1 -14 -3 -43 -8 -65 -11 -69 -10 -225 -78 -210 -92 2 -3 22 -6
42 -8 21 -2 49 -5 63 -7 94 -15 116 -20 128 -29 6 -6 12 -8 12 -5 0 3 21 -1
48 -9 26 -8 54 -17 62 -19 78 -20 271 -124 369 -199 112 -84 171 -142 274
-266 24 -29 67 -90 67 -95 0 -6 39 -64 50 -75 13 -13 50 -92 69 -148 38 -113
24 -208 -44 -277 -51 -54 -110 -87 -209 -119 -113 -37 -120 -38 -236 -42 -152
-5 -331 23 -568 88 -41 11 -75 18 -77 16 -14 -14 285 -182 405 -228 19 -7 39
-17 45 -22 5 -4 19 -8 32 -8 13 0 23 -5 23 -12 0 -6 3 -9 6 -5 3 3 18 1 33 -5
35 -13 249 -69 284 -74 15 -2 47 -6 70 -10 23 -4 60 -7 82 -7 36 0 59 3 155
20 288 51 556 222 706 450 30 44 54 86 54 91 0 6 3 12 8 14 6 3 39 79 55 130
4 11 16 17 34 16 85 -1 263 34 339 68 22 9 41 18 44 18 12 2 160 86 170 96 3
3 23 18 45 35 115 84 258 267 334 428 44 94 51 125 70 307 8 73 5 375 -3 435
-5 31 -15 96 -21 130 -13 73 -59 255 -64 250 -2 -3 -6 -31 -7 -63 -5 -103 -14
-206 -30 -312 -3 -25 -8 -56 -9 -70 -20 -151 -97 -342 -174 -432 -102 -119
-175 -167 -258 -172 -106 -6 -232 78 -358 239 -22 28 -43 52 -47 53 -5 2 -8 9
-8 16 0 7 -9 22 -19 33 -11 11 -31 43 -46 69 -15 27 -36 67 -48 89 -30 55
-114 270 -106 270 1 0 -6 35 -16 78 -9 42 -15 84 -11 92 3 8 2 17 -3 19 -24
16 -16 316 12 454 8 34 12 62 10 62 -2 0 -28 -25 -58 -56z"/>
<path d="M2628 3435 c-3 -3 1 -31 8 -63 25 -103 34 -303 20 -427 -13 -110 -14
-120 -36 -200 -84 -315 -309 -654 -496 -746 -58 -29 -70 -31 -134 -27 -45 4
-77 11 -89 22 -9 9 -22 16 -27 16 -19 0 -164 153 -164 173 0 6 -9 20 -19 31
-50 54 -120 254 -136 391 -3 22 -7 51 -10 65 -6 32 -22 192 -30 295 -1 22 -4
42 -5 45 -2 8 -29 -81 -35 -119 -3 -18 -7 -37 -10 -41 -4 -7 -12 -48 -20 -110
-2 -14 -4 -25 -5 -25 -7 0 -14 -150 -15 -295 0 -148 8 -315 15 -315 2 0 4 -13
5 -30 2 -16 4 -30 5 -30 1 0 3 -9 4 -20 6 -46 71 -196 88 -203 4 -2 8 -8 8
-14 0 -9 63 -107 94 -146 199 -248 498 -404 778 -405 45 0 48 -1 59 -35 22
-68 93 -194 149 -267 44 -56 164 -168 230 -212 76 -51 198 -113 223 -113 7 0
17 -4 22 -8 11 -10 105 -39 150 -47 17 -2 41 -7 55 -11 89 -20 277 -20 310 1
5 3 25 8 43 10 36 5 242 65 292 86 17 7 32 13 35 14 27 9 47 18 60 26 8 5 22
12 30 15 84 35 193 95 268 145 23 16 47 29 53 29 5 0 9 4 9 8 0 5 10 14 23 20
21 11 20 11 -8 8 -16 -3 -46 -10 -65 -16 -19 -6 -43 -13 -53 -15 -9 -2 -45
-11 -80 -20 -34 -9 -78 -18 -97 -21 -19 -3 -38 -8 -41 -9 -3 -2 -25 -7 -50
-10 -24 -3 -60 -8 -79 -11 -271 -43 -576 53 -655 206 -29 55 -28 151 2 234 14
39 36 87 49 108 13 21 24 39 24 42 0 10 94 144 144 205 69 84 277 271 302 271
4 0 15 6 23 14 29 25 184 103 272 135 102 37 284 78 359 81 38 1 -119 72 -187
85 -16 3 -39 8 -53 11 -49 12 -206 11 -285 -2 -114 -18 -128 -21 -229 -56
-105 -35 -146 -54 -146 -68 0 -6 -7 -10 -15 -10 -8 0 -15 -4 -15 -8 0 -11
-114 -67 -155 -77 -48 -12 -130 -13 -186 -3 -160 29 -302 168 -338 329 -11 50
-9 168 2 187 5 6 6 12 3 12 -3 0 3 21 13 48 24 62 22 282 -3 407 -26 128 -73
243 -136 334 -57 81 -111 137 -122 126z"/>
<path d="M6870 1114 c-164 -34 -282 -143 -346 -319 -11 -31 -13 -46 -16 -95
-2 -63 4 -143 12 -155 4 -5 10 -23 14 -39 10 -39 66 -125 112 -170 46 -45 126
-91 191 -111 59 -18 174 -21 234 -5 178 47 315 195 344 375 1 6 3 15 4 20 2 6
3 28 2 50 -2 292 -265 507 -551 449z"/>
<path d="M1915 1081 c-86 -25 -139 -55 -200 -114 -53 -53 -121 -158 -108 -170
3 -4 0 -7 -7 -7 -7 0 -11 -3 -8 -6 4 -3 2 -20 -3 -37 -43 -141 8 -316 123
-431 56 -55 136 -106 178 -113 8 -1 35 -7 60 -13 90 -23 222 0 315 54 71 42
166 143 171 184 2 8 9 21 17 30 32 37 45 211 22 292 -8 30 -17 62 -19 72 -6
24 -75 119 -110 152 -111 104 -287 148 -431 107z"/>
</g>
</svg>
